<svg xmlns="http://www.w3.org/2000/svg" version="1.1" xmlns:xlink="http://www.w3.org/1999/xlink" xmlns:svgjs="http://svgjs.dev/svgjs" width="1000" height="613" viewBox="0 0 1000 613"><g transform="matrix(1,0,0,1,-0.6060409141843479,-0.2845221180259614)"><svg viewBox="0 0 396 243" data-background-color="#ffffff" preserveAspectRatio="xMidYMid meet" height="613" width="1000" xmlns="http://www.w3.org/2000/svg" xmlns:xlink="http://www.w3.org/1999/xlink"><g id="tight-bounds" transform="matrix(1,0,0,1,0.23999220201699245,0.11278772378517488)"><svg viewBox="0 0 395.52 242.77442455242965" height="242.77442455242965" width="395.52"><g><svg viewBox="0 0 395.52 242.77442455242965" height="242.77442455242965" width="395.52"><g><svg viewBox="0 0 395.52 242.77442455242965" height="242.77442455242965" width="395.52"><g><svg viewBox="0 0 395.52 242.77442455242965" height="242.77442455242965" width="395.52" id="textblock"><g><svg viewBox="0 0 395.52 242.77442455242965" height="242.77442455242965" width="395.52"><g transform="matrix(1,0,0,1,0,0)"><svg width="395.52" viewBox="-0.8500000238418579 -31.25 58.64999771118164 36" height="242.77442455242965" data-palette-color="#8b3c7f"><path d="M39.55-21.4L39.55-21.4Q37.7-20.65 36.38-20.65 35.05-20.65 35.05-21.2L35.05-21.2Q35.05-21.55 36.52-21.6 38-21.65 38.65-21.95L38.65-21.95Q40.55-22.95 40.55-24.9L40.55-24.9Q40.55-25.9 40-27L40-27Q38.4-29.85 32.25-29.85L32.25-29.85Q28.7-29.85 25.15-28.78 21.6-27.7 19.2-25.48 16.8-23.25 16.8-21.35L16.8-21.35Q16.8-18.45 22.55-17.1L22.55-17.1 28.45-16Q32-15.35 33.75-14.2L33.75-14.2Q36.05-12.8 36.05-10.2L36.05-10.2Q36.05-9.15 35.7-7.95L35.7-7.95Q34.1-2.55 27.45 0.3L27.45 0.3Q21.9 2.75 14.35 2.75L14.35 2.75Q12.2 2.75 10.6 2.55L10.6 2.55Q12.2 3.45 14.8 4.1L14.8 4.1Q15 4.15 15 4.3L15 4.3Q15 4.75 13.95 4.75L13.95 4.75Q11.9 4.75 8.85 2.3L8.85 2.3Q4.7 1.65 2.65 0L2.65 0Q1.35-1.05 0.25-3.1-0.85-5.15-0.85-6.8-0.85-8.45-0.2-9.55L-0.2-9.55Q1.3-12.2 3.6-12.2L3.6-12.2Q5.35-12.2 5.65-9.25L5.65-9.25Q6.35-3.55 6.6-2.75L6.6-2.75Q7.35-0.3 9.15 1.4L9.15 1.4Q11.25 1.85 13.7 1.85L13.7 1.85Q19.1 1.85 24.3-0.3 29.5-2.45 31.8-6.4L31.8-6.4Q32.75-7.95 32.75-9.15L32.75-9.15Q32.75-11.5 28.6-12.8L28.6-12.8 19.8-14.8Q17.1-15.45 15.48-16.95 13.85-18.45 13.85-20.4L13.85-20.4Q13.85-23.4 17.6-26.4L17.6-26.4Q20.45-28.7 24.58-29.98 28.7-31.25 32.68-31.25 36.65-31.25 39.25-30.1L39.25-30.1Q42.6-28.55 42.6-25.58 42.6-22.6 39.55-21.4ZM7.35 0.9L7.35 0.9Q4.45-2.3 3.65-7.85L3.65-7.85Q3.2-11 2.8-11 2.4-11 2.05-10.78 1.7-10.55 1.35-9.8 1-9.05 1-7.85L1-7.85Q1-4 3.7-1.25L3.7-1.25Q5.05 0.15 7.35 0.9ZM50.45-16.1L50.45-16.1 57.65-16.2Q57.8-16.1 57.8-16.05L57.8-16.05Q57.8-15.6 51.57-14.8 45.35-14 44.85-13.85L44.85-13.85Q43.9-13 41.35-8.78 38.8-4.55 38.8-2.6L38.8-2.6Q38.8-0.75 41.35-0.75L41.35-0.75Q42.55-0.75 44.5-1.5 46.45-2.25 47.5-2.9L47.5-2.9Q50.3-4.65 53.5-8.05L53.5-8.05Q54.2-8.75 54.45-8.75L54.45-8.75Q54.6-8.75 54.6-8.45 54.6-8.15 53.85-7.25L53.85-7.25Q51.25-4.05 48-2.1L48-2.1Q44.1 0.3 40.55 0.3L40.55 0.3Q39 0.3 38.02-0.38 37.05-1.05 37.05-3.1 37.05-5.15 38.85-8.72 40.65-12.3 41.6-14.05L41.6-14.05Q40.9-13.9 40.4-13.9L40.4-13.9Q38.95-13.9 38.95-15.05L38.95-15.05Q38.95-15.9 40.15-16.25L40.15-16.25Q40.3-16.25 40.6-16.3L40.6-16.3 43.5-16.3Q44.4-17.45 45.55-18.95L45.55-18.95Q46.95-20.75 47.45-20.75 47.95-20.75 48.7-20.35 49.45-19.95 49.45-19.4 49.45-18.85 47.05-16.15L47.05-16.15Q48.35-16.1 50.45-16.1Z" opacity="1" transform="matrix(1,0,0,1,0,0)" fill="#8b3c7f" class="undefined-text-0" data-fill-palette-color="primary" id="text-0"></path></svg></g></svg></g></svg></g></svg></g><g></g></svg></g><defs></defs></svg><rect width="395.52" height="242.77442455242965" fill="none" stroke="none" visibility="hidden"></rect></g></svg></g></svg>